<svg width="35" height="35" viewBox="0 0 35 35" fill="none" xmlns="http://www.w3.org/2000/svg">
<path d="M17.5 0.5C15.2019 0.5 12.9262 0.952651 10.803 1.83211C8.67984 2.71157 6.75066 4.00061 5.12563 5.62563C1.84374 8.90752 0 13.3587 0 18C0 25.735 5.0225 32.2975 11.97 34.625C12.845 34.765 13.125 34.2225 13.125 33.75V30.7925C8.2775 31.8425 7.245 28.4475 7.245 28.4475C6.44 26.4175 5.3025 25.875 5.3025 25.875C3.71 24.79 5.425 24.825 5.425 24.825C7.175 24.9475 8.1025 26.6275 8.1025 26.6275C9.625 29.2875 12.1975 28.5 13.195 28.08C13.3525 26.9425 13.8075 26.1725 14.2975 25.735C10.4125 25.2975 6.335 23.7925 6.335 17.125C6.335 15.1825 7 13.625 8.1375 12.3825C7.9625 11.945 7.35 10.125 8.3125 7.7625C8.3125 7.7625 9.7825 7.29 13.125 9.5475C14.5075 9.1625 16.0125 8.97 17.5 8.97C18.9875 8.97 20.4925 9.1625 21.875 9.5475C25.2175 7.29 26.6875 7.7625 26.6875 7.7625C27.65 10.125 27.0375 11.945 26.8625 12.3825C28 13.625 28.665 15.1825 28.665 17.125C28.665 23.81 24.57 25.28 20.6675 25.7175C21.2975 26.26 21.875 27.3275 21.875 28.955V33.75C21.875 34.2225 22.155 34.7825 23.0475 34.625C29.995 32.28 35 25.735 35 18C35 15.7019 34.5474 13.4262 33.6679 11.303C32.7884 9.17984 31.4994 7.25066 29.8744 5.62563C28.2493 4.00061 26.3202 2.71157 24.197 1.83211C22.0738 0.952651 19.7981 0.5 17.5 0.5Z" fill="#7C3AED"/>
</svg>
