<svg width="33" height="32" viewBox="0 0 33 32" fill="none" xmlns="http://www.w3.org/2000/svg">
<path d="M28.75 0.25C29.6783 0.25 30.5685 0.618749 31.2249 1.27513C31.8813 1.9315 32.25 2.82174 32.25 3.75V28.25C32.25 29.1783 31.8813 30.0685 31.2249 30.7249C30.5685 31.3813 29.6783 31.75 28.75 31.75H4.25C3.32174 31.75 2.4315 31.3813 1.77513 30.7249C1.11875 30.0685 0.75 29.1783 0.75 28.25V3.75C0.75 2.82174 1.11875 1.9315 1.77513 1.27513C2.4315 0.618749 3.32174 0.25 4.25 0.25H28.75ZM27.875 27.375V18.1C27.875 16.5869 27.2739 15.1359 26.204 14.066C25.1341 12.9961 23.6831 12.395 22.17 12.395C20.6825 12.395 18.95 13.305 18.11 14.67V12.7275H13.2275V27.375H18.11V18.7475C18.11 17.4 19.195 16.2975 20.5425 16.2975C21.1923 16.2975 21.8154 16.5556 22.2749 17.0151C22.7344 17.4746 22.9925 18.0977 22.9925 18.7475V27.375H27.875ZM7.54 9.98C8.31974 9.98 9.06754 9.67025 9.61889 9.11889C10.1703 8.56754 10.48 7.81974 10.48 7.04C10.48 5.4125 9.1675 4.0825 7.54 4.0825C6.75562 4.0825 6.00337 4.39409 5.44873 4.94873C4.89409 5.50337 4.5825 6.25562 4.5825 7.04C4.5825 8.6675 5.9125 9.98 7.54 9.98ZM9.9725 27.375V12.7275H5.125V27.375H9.9725Z" fill="#7C3AED"/>
</svg>
