<svg width="50" height="50" viewBox="0 0 50 50" fill="none" xmlns="http://www.w3.org/2000/svg">
<path d="M25 -1.09278e-06C20.0555 -1.30892e-06 15.222 1.46622 11.1108 4.21326C6.99952 6.96029 3.79521 10.8648 1.90302 15.4329C0.0108329 20.0011 -0.48425 25.0277 0.48038 29.8772C1.44501 34.7268 3.82603 39.1813 7.32234 42.6777C10.8187 46.174 15.2732 48.555 20.1227 49.5196C24.9723 50.4842 29.9989 49.9892 34.5671 48.097C39.1352 46.2048 43.0397 43.0005 45.7867 38.8892C48.5338 34.778 50 29.9445 50 25C50 18.3696 47.3661 12.0107 42.6777 7.32233C37.9893 2.63392 31.6304 -8.0296e-07 25 -1.09278e-06ZM26.7857 10.7143L26.7857 32.4107L36.7982 22.4464L39.2857 25L25 39.2857L10.7143 25L13.2625 22.4464L23.2143 32.4107L23.2143 10.7143L26.7857 10.7143Z" fill="#6D28D9"/>
</svg>
